HIERARCHY
ROOT Hips
{
	OFFSET 0.000000 0.000000 0.000000
	CHANNELS 6 Xposition Yposition Zposition Zrotation Yrotation Xrotation 
	JOINT LHipJoint
	{
		OFFSET 0.000000 0.000000 0.000000
		CHANNELS 3 Zrotation Yrotation Xrotation
		JOINT LeftUpLeg
		{
			OFFSET 1.363060 -1.794630 0.839290
			CHANNELS 3 Zrotation Yrotation Xrotation
			JOINT LeftLeg
			{
				OFFSET 2.448110 -6.726130 0.000000
				CHANNELS 3 Zrotation Yrotation Xrotation
				JOINT LeftFoot
				{
					OFFSET 2.562200 -7.039590 0.000000
					CHANNELS 3 Zrotation Yrotation Xrotation
					JOINT LeftToeBase
					{
						OFFSET 0.157640 -0.433110 2.322550
						CHANNELS 3 Zrotation Yrotation Xrotation
						End Site
						{
							OFFSET 0.000000 0.000000 0.000000
						}
					}
				}
			}
		}
	}
	JOINT RHipJoint
	{
		OFFSET 0.000000 0.000000 0.000000
		CHANNELS 3 Zrotation Yrotation Xrotation
		JOINT RightUpLeg
		{
			OFFSET -1.305520 -1.794630 0.839290
			CHANNELS 3 Zrotation Yrotation Xrotation
			JOINT RightLeg
			{
				OFFSET -2.542530 -6.985550 0.000000
				CHANNELS 3 Zrotation Yrotation Xrotation
				JOINT RightFoot
				{
					OFFSET -2.568260 -7.056230 0.000000
					CHANNELS 3 Zrotation Yrotation Xrotation
					JOINT RightToeBase
					{
						OFFSET -0.164730 -0.452590 2.363150
						CHANNELS 3 Zrotation Yrotation Xrotation
						End Site
						{
							OFFSET 0.000000 0.000000 0.000000
						}
					}
				}
			}
		}
	}
}
MOTION
Frames: 16
Frame Time: 0.008333
-4.843009 15.564747 -1.557781 -6.301313 67.532112 24.145698 -8.171449 -2.324284 -1.290421 -5.956967 3.457862 -72.461829 -1.529513 4.279778 48.735451 0.836486 2.479544 -4.140618 0.361100 -0.000000 -31.690200 11.313384 0.581123 -5.918550 8.840030 -7.623245 -32.927350 0.889233 -4.537755 64.154944 0.523028 8.538405 -16.729760 -1.198700 -0.000000 -60.906700
-4.670215 15.507511 -1.536279 -6.503070 66.469912 23.479934 -8.212220 -2.368798 -1.561231 -6.082820 4.405168 -72.404225 -1.378490 4.540702 51.365910 0.957642 3.090485 -5.161946 0.333400 -0.000000 -30.769600 11.463323 0.578152 -5.792227 8.301437 -7.380743 -33.047610 0.553354 -4.666321 66.232865 0.504034 8.061323 -15.774699 -1.045400 -0.000000 -60.243900
-4.501220 15.454150 -1.512168 -6.601259 65.425306 22.938823 -8.249504 -2.394862 -1.819976 -6.272542 5.341393 -72.279987 -1.256963 4.776035 53.745296 1.080180 3.703185 -6.369632 0.272500 0.000000 -30.265300 11.602056 0.584306 -5.667634 7.804545 -7.149243 -33.279718 0.217103 -4.793692 68.345097 0.439172 7.277509 -14.997355 -0.869000 0.000000 -58.695200
-4.336299 15.405623 -1.485778 -6.619590 64.413175 22.500619 -8.283934 -2.403995 -2.060060 -6.493836 6.234783 -72.083801 -1.161616 4.983077 55.857208 1.205024 4.314289 -7.727466 0.174200 -0.000000 -30.209400 11.728107 0.600850 -5.551333 7.361067 -6.945550 -33.614971 -0.112495 -4.919332 70.461445 0.330257 6.204805 -14.432990 -0.685300 0.000000 -56.257600
-4.175687 15.362667 -1.457563 -6.581461 63.444078 22.141839 -8.316884 -2.398893 -2.277019 -6.716264 7.059437 -71.810318 -1.087933 5.160231 57.703477 1.333181 4.923745 -9.185419 0.037700 -0.000000 -30.577100 11.840313 0.628606 -5.448551 6.981405 -6.781461 -34.042602 -0.428864 -5.042785 72.551133 0.181281 4.886751 -14.107181 -0.504200 0.000000 -52.990600
-4.019512 15.325743 -1.428009 -6.507891 62.525223 21.839657 -8.350237 -2.382708 -2.468629 -6.914407 7.796744 -71.453692 -1.030592 5.306921 59.298286 1.465188 5.534372 -10.682938 -0.134600 -0.000000 -31.294000 11.937950 0.667773 -5.362928 6.673450 -6.664042 -34.551570 -0.726280 -5.163798 74.584691 -0.001286 3.389353 -14.031840 -0.328500 -0.000000 -49.004300
-3.867850 15.295003 -1.397595 -6.416357 61.660261 21.574681 -8.385926 -2.358578 -2.634412 -7.068882 8.435210 -71.011591 -0.983827 5.423818 60.664687 1.600825 6.150883 -12.156330 -0.336800 0.000000 -32.248500 12.020630 0.717965 -5.296231 6.442775 -6.594808 -35.132036 -1.000075 -5.282086 76.533979 -0.208424 1.794482 -14.202519 -0.154500 -0.000000 -44.506700
-3.720711 15.270347 -1.366720 -6.323470 60.849753 21.329065 -8.425940 -2.329279 -2.775324 -7.166632 8.972649 -70.485881 -0.942115 5.512903 61.829719 1.738818 6.777501 -13.544690 -0.560700 -0.000001 -33.311900 12.087881 0.778009 -5.247779 6.294745 -6.568589 -35.776270 -1.247133 -5.396820 78.372040 -0.429028 0.189791 -14.591160 0.025100 0.000000 -39.803500
-3.578130 15.251461 -1.335688 -6.242630 60.092505 21.089248 -8.471657 -2.297012 -2.893682 -7.202060 9.414426 -69.884018 -0.900686 5.577380 62.822875 1.877014 7.416430 -14.797065 -0.796199 0.000000 -34.363500 12.139520 0.846231 -5.215452 6.233961 -6.576546 -36.479663 -1.465540 -5.507193 80.077893 -0.650564 -1.338237 -15.157392 0.215400 -0.000000 -35.202500
-3.440035 15.237874 -1.304605 -6.185689 59.385507 20.844538 -8.523930 -2.263162 -2.992609 -7.176658 9.773689 -69.218436 -0.856385 5.621374 63.671572 2.012464 8.064898 -15.877479 -1.032800 0.000000 -35.311100 12.175315 0.920487 -5.195762 6.264640 -6.607332 -37.240171 -1.654245 -5.612216 81.635712 -0.860277 -2.712276 -15.853919 0.416300 -0.000000 -30.961200
-3.306393 15.229055 -1.273529 -6.161439 58.724695 20.587983 -8.582914 -2.228443 -3.075492 -7.097199 10.068960 -68.505590 -0.807983 5.649480 64.399276 2.142068 8.715445 -16.768646 -1.260500 -0.000000 -36.100700 12.195037 0.998350 -5.184781 6.391259 -6.650089 -38.057407 -1.812947 -5.710926 83.035389 -1.046671 -3.871058 -16.631810 0.621700 -0.000000 -27.265600
-3.177124 15.224363 -1.242277 -6.175836 58.106435 20.316634 -8.647822 -2.193199 -3.146293 -6.974377 10.322396 -67.764241 -0.756298 5.666463 65.025084 2.262898 9.355501 -17.473689 -1.471900 0.000000 -36.714600 12.198623 1.077763 -5.178955 6.617253 -6.695732 -38.933549 -1.941616 -5.802818 84.272076 -1.200756 -4.772538 -17.449792 0.820300 0.000000 -24.170900
-3.052095 15.223287 -1.210691 -6.231153 57.526221 20.030393 -8.717538 -2.157235 -3.208530 -6.821008 10.557073 -67.011836 -0.704034 5.676574 65.561282 2.372666 9.969381 -18.014217 -1.662200 0.000001 -37.162200 12.185835 1.156833 -5.174809 6.944484 -6.737817 -39.869842 -2.040912 -5.887276 85.342491 -1.317197 -5.398794 -18.265904 0.998800 -0.000000 -21.707500
-2.931203 15.225343 -1.178467 -6.324943 56.980327 19.733248 -8.790309 -2.120374 -3.265553 -6.649585 10.793427 -66.263487 -0.654981 5.683302 66.015404 2.470069 10.541454 -18.426098 -1.831001 -0.000000 -37.471500 12.156689 1.234409 -5.169953 7.371921 -6.773050 -40.866898 -2.112030 -5.964105 86.245772 -1.394780 -5.755817 -19.044692 1.144700 -0.000000 -19.840100
-2.814279 15.230130 -1.145318 -6.453033 56.465136 19.431560 -8.864106 -2.082471 -3.320373 -6.471410 11.048042 -65.530944 -0.613346 5.689264 66.391372 2.554650 11.057510 -18.753249 -1.981201 -0.000000 -37.681500 12.111319 1.310067 -5.163002 7.896081 -6.800948 -41.925260 -2.156817 -6.033462 86.982681 -1.436460 -5.872894 -19.755762 1.249700 0.000000 -18.509400
-2.701095 15.237432 -1.111016 -6.607634 55.977495 19.132474 -8.937144 -2.043399 -3.375348 -6.295581 11.331749 -64.819793 -0.582993 5.695867 66.689842 2.626752 11.507508 -19.039368 -2.117800 -0.000000 -37.837000 12.049888 1.383657 -5.153454 8.510219 -6.823206 -43.041697 -2.177780 -6.095592 87.554620 -1.448981 -5.800278 -20.374694 1.312299 -0.000000 -17.654100
